<svg width="16" height="16" viewBox="0 0 16 16" fill="none" xmlns="http://www.w3.org/2000/svg">
<path d="M5.66667 15H10.3333M5.66667 15H4.11111C3.28599 15 2.49467 14.6594 1.91122 14.0531C1.32778 13.4468 1 12.6245 1 11.7671V6.68183C0.999989 6.12595 1.13791 5.57946 1.40045 5.09513C1.66299 4.61081 2.04128 4.20501 2.49878 3.91692L6.38767 1.46802C6.87387 1.16187 7.4315 1 8 1C8.5685 1 9.12613 1.16187 9.61233 1.46802L13.5012 3.91692C13.9586 4.20494 14.3368 4.61061 14.5994 5.09478C14.8619 5.57896 14.9999 6.12528 15 6.68102V11.7671C15 12.6245 14.6722 13.4468 14.0888 14.0531C13.5053 14.6594 12.714 15 11.8889 15H10.3333H5.66667ZM5.66667 15V11.7671C5.66667 11.1241 5.9125 10.5074 6.35008 10.0526C6.78767 9.59794 7.38116 9.34248 8 9.34248V9.34248C8.61884 9.34248 9.21233 9.59794 9.64992 10.0526C10.0875 10.5074 10.3333 11.1241 10.3333 11.7671V15H5.66667Z" stroke="#36C690" stroke-width="1.5" stroke-linecap="round" stroke-linejoin="round"/>
</svg>
