<svg width="19" height="21" viewBox="0 0 19 21" fill="none" xmlns="http://www.w3.org/2000/svg">
<path d="M16.1197 11.0177V9.18966H14.7179V11.3103C14.718 11.4978 14.7919 11.6776 14.9233 11.8101L16.8205 13.7237V14.8448H1.40171V13.7237L3.29892 11.8101C3.43037 11.6776 3.50423 11.4978 3.50427 11.3103V8.48276C3.50232 7.48942 3.7603 6.51316 4.25215 5.65257C4.744 4.79198 5.4523 4.07754 6.30552 3.58142C7.15873 3.08531 8.12665 2.82507 9.11149 2.82701C10.0963 2.82894 11.0632 3.09298 11.9145 3.59245V2.01253C11.2474 1.71459 10.5378 1.52469 9.81197 1.44984V0H8.41026V1.44914C6.68235 1.62652 5.08103 2.44382 3.91593 3.743C2.75084 5.04219 2.10474 6.73095 2.10256 8.48276V11.0177L0.20535 12.9313C0.0739056 13.0638 3.96946e-05 13.2436 0 13.431V15.5517C0 15.7392 0.0738398 15.919 0.205276 16.0516C0.336711 16.1841 0.514977 16.2586 0.700855 16.2586H5.60684V16.9655C5.60684 17.9029 5.97604 18.8019 6.63322 19.4648C7.29039 20.1276 8.18172 20.5 9.11111 20.5C10.0405 20.5 10.9318 20.1276 11.589 19.4648C12.2462 18.8019 12.6154 17.9029 12.6154 16.9655V16.2586H17.5214C17.7072 16.2586 17.8855 16.1841 18.0169 16.0516C18.1484 15.919 18.2222 15.7392 18.2222 15.5517V13.431C18.2222 13.2436 18.1483 13.0638 18.0169 12.9313L16.1197 11.0177ZM11.2137 16.9655C11.2137 17.528 10.9922 18.0674 10.5978 18.4651C10.2035 18.8628 9.66875 19.0862 9.11111 19.0862C8.55348 19.0862 8.01868 18.8628 7.62437 18.4651C7.23007 18.0674 7.00855 17.528 7.00855 16.9655V16.2586H11.2137V16.9655Z" fill="#676767"/>
<path d="M15.1852 8.35178C16.8625 8.35178 18.2223 6.99206 18.2223 5.31475C18.2223 3.63744 16.8625 2.27771 15.1852 2.27771C13.5079 2.27771 12.1482 3.63744 12.1482 5.31475C12.1482 6.99206 13.5079 8.35178 15.1852 8.35178Z" fill="#EAEBEB"/>
<path d="M15.1851 6.83332C16.0238 6.83332 16.7037 6.15345 16.7037 5.3148C16.7037 4.47614 16.0238 3.79628 15.1851 3.79628C14.3465 3.79628 13.6666 4.47614 13.6666 5.3148C13.6666 6.15345 14.3465 6.83332 15.1851 6.83332Z" fill="#676767"/>
</svg>
