<svg width="40" height="40" viewBox="0 0 40 40" fill="none" xmlns="http://www.w3.org/2000/svg">
<circle cx="20" cy="20" r="20" fill="#BFF1C4"/>
<circle cx="20" cy="20" r="15.2" fill="white"/>
<path d="M26 16C26 17.5913 25.3679 19.1174 24.2426 20.2426C23.1174 21.3679 21.5913 22 20 22C18.4087 22 16.8826 21.3679 15.7574 20.2426C14.6321 19.1174 14 17.5913 14 16C14 14.4087 14.6321 12.8826 15.7574 11.7574C16.8826 10.6321 18.4087 10 20 10C21.5913 10 23.1174 10.6321 24.2426 11.7574C25.3679 12.8826 26 14.4087 26 16Z" fill="#36C690"/>
<path fill-rule="evenodd" clip-rule="evenodd" d="M4 20C4 15.7565 5.68571 11.6869 8.68629 8.68629C11.6869 5.68571 15.7565 4 20 4C24.2435 4 28.3131 5.68571 31.3137 8.68629C34.3143 11.6869 36 15.7565 36 20C36 24.2435 34.3143 28.3131 31.3137 31.3137C28.3131 34.3143 24.2435 36 20 36C15.7565 36 11.6869 34.3143 8.68629 31.3137C5.68571 28.3131 4 24.2435 4 20ZM20 6C17.3636 6.00014 14.7807 6.74473 12.5488 8.14806C10.3169 9.55139 8.52657 11.5564 7.38393 13.9324C6.24129 16.3084 5.79277 18.9587 6.09 21.5783C6.38722 24.198 7.41811 26.6804 9.064 28.74C10.484 26.452 13.61 24 20 24C26.39 24 29.514 26.45 30.936 28.74C32.5819 26.6804 33.6128 24.198 33.91 21.5783C34.2072 18.9587 33.7587 16.3084 32.6161 13.9324C31.4734 11.5564 29.6831 9.55139 27.4512 8.14806C25.2193 6.74473 22.6364 6.00014 20 6Z" fill="#36C690"/>
</svg>
