<svg width="17" height="17" viewBox="0 0 17 17" fill="none" xmlns="http://www.w3.org/2000/svg">
<path d="M8.85651 1.04987L8.85659 1.04995L15.9503 8.14371C16.1422 8.33564 16.25 8.59591 16.25 8.86729C16.25 9.13868 16.1422 9.39895 15.9503 9.59088L9.59088 15.9503C9.39895 16.1422 9.13868 16.25 8.86729 16.25C8.59591 16.25 8.33564 16.1422 8.14371 15.9503L1.04995 8.85659L1.04987 8.85651C0.857962 8.66466 0.7501 8.40444 0.75 8.13308C0.75 8.13303 0.75 8.13298 0.75 8.13292V1.77346C0.75 1.50202 0.857828 1.2417 1.04976 1.04976C1.2417 0.857828 1.50202 0.75 1.77346 0.75H8.13292C8.13298 0.75 8.13303 0.75 8.13308 0.75C8.40444 0.7501 8.66466 0.857962 8.85651 1.04987ZM2.64898 6.21743C3.12218 6.69087 3.76408 6.95694 4.43346 6.95711C5.10284 6.95727 5.74487 6.69152 6.21831 6.21832C6.69176 5.74511 6.95783 5.10322 6.95799 4.43384C6.95816 3.76445 6.69241 3.12242 6.21921 2.64898C5.746 2.17554 5.1041 1.90947 4.43472 1.9093C3.76534 1.90913 3.12331 2.17488 2.64987 2.64809C2.17643 3.12129 1.91036 3.76319 1.91019 4.43257C1.91002 5.10195 2.17577 5.74398 2.64898 6.21743Z" stroke="#676767" stroke-width="1.5"/>
</svg>
