<svg width="16" height="19" viewBox="0 0 16 19" fill="none" xmlns="http://www.w3.org/2000/svg">
<path d="M15.1 5.14706L8.05 1L1 5.14706V13.4412L8.05 17.5882L15.1 13.4412V5.14706Z" stroke="#676767" stroke-width="1.5" stroke-linejoin="round"/>
<path d="M6.12203 9.17694C5.89631 9.17694 5.68727 9.13975 5.49491 9.06537C5.3051 8.99099 5.14095 8.88711 5.00244 8.75373C4.86394 8.61779 4.75621 8.45492 4.67926 8.26512C4.60232 8.07275 4.56384 7.85858 4.56384 7.6226C4.56384 7.3892 4.60232 7.17631 4.67926 6.98394C4.75621 6.79157 4.86394 6.6287 5.00244 6.49533C5.14095 6.35939 5.3051 6.25422 5.49491 6.17984C5.68727 6.10546 5.89631 6.06827 6.12203 6.06827C6.34774 6.06827 6.5555 6.10546 6.7453 6.17984C6.93767 6.25422 7.10311 6.35939 7.24161 6.49533C7.38012 6.6287 7.48784 6.79157 7.56479 6.98394C7.64174 7.17631 7.68021 7.3892 7.68021 7.6226C7.68021 7.85858 7.64174 8.07275 7.56479 8.26512C7.48784 8.45492 7.38012 8.61779 7.24161 8.75373C7.10311 8.88711 6.93767 8.99099 6.7453 9.06537C6.5555 9.13975 6.34774 9.17694 6.12203 9.17694ZM10.0925 6.14137H11.2737L6.44521 12.1971H5.26406L10.0925 6.14137ZM6.12203 8.39208C6.21949 8.39208 6.31055 8.37412 6.39519 8.33822C6.4824 8.29974 6.55806 8.24716 6.62219 8.18047C6.68631 8.11122 6.73632 8.02914 6.77223 7.93424C6.81071 7.83934 6.82994 7.73546 6.82994 7.6226C6.82994 7.50975 6.81071 7.40587 6.77223 7.31097C6.73632 7.21607 6.68631 7.13527 6.62219 7.06858C6.55806 6.99933 6.4824 6.94675 6.39519 6.91084C6.31055 6.87237 6.21949 6.85313 6.12203 6.85313C6.02456 6.85313 5.93222 6.87237 5.84502 6.91084C5.76037 6.94675 5.68599 6.99933 5.62187 7.06858C5.55775 7.13527 5.50645 7.21607 5.46797 7.31097C5.43207 7.40587 5.41411 7.50975 5.41411 7.6226C5.41411 7.73546 5.43207 7.83934 5.46797 7.93424C5.50645 8.02914 5.55775 8.11122 5.62187 8.18047C5.68599 8.24716 5.76037 8.29974 5.84502 8.33822C5.93222 8.37412 6.02456 8.39208 6.12203 8.39208ZM8.81903 10.7236C8.81903 10.4902 8.85751 10.2773 8.93445 10.0849C9.0114 9.89255 9.11913 9.72968 9.25763 9.59631C9.39614 9.46037 9.56029 9.3552 9.7501 9.28082C9.94246 9.20644 10.1515 9.16925 10.3772 9.16925C10.6029 9.16925 10.8107 9.20644 11.0005 9.28082C11.1929 9.3552 11.3583 9.46037 11.4968 9.59631C11.6353 9.72968 11.743 9.89255 11.82 10.0849C11.8969 10.2773 11.9354 10.4902 11.9354 10.7236C11.9354 10.9596 11.8969 11.1737 11.82 11.3661C11.743 11.5559 11.6353 11.7188 11.4968 11.8547C11.3583 11.9881 11.1929 12.092 11.0005 12.1663C10.8107 12.2407 10.6029 12.2779 10.3772 12.2779C10.1515 12.2779 9.94246 12.2407 9.7501 12.1663C9.56029 12.092 9.39614 11.9881 9.25763 11.8547C9.11913 11.7188 9.0114 11.5559 8.93445 11.3661C8.85751 11.1737 8.81903 10.9596 8.81903 10.7236ZM9.6693 10.7236C9.6693 10.8364 9.68726 10.9403 9.72317 11.0352C9.76164 11.1301 9.81294 11.2122 9.87706 11.2815C9.94118 11.3481 10.0156 11.4007 10.1002 11.4392C10.1874 11.4751 10.2798 11.4931 10.3772 11.4931C10.4747 11.4931 10.5657 11.4751 10.6504 11.4392C10.7376 11.4007 10.8133 11.3481 10.8774 11.2815C10.9415 11.2122 10.9915 11.1301 11.0274 11.0352C11.0659 10.9403 11.0851 10.8364 11.0851 10.7236C11.0851 10.6107 11.0659 10.5068 11.0274 10.4119C10.9915 10.317 10.9415 10.2363 10.8774 10.1696C10.8133 10.1003 10.7376 10.0477 10.6504 10.0118C10.5657 9.97335 10.4747 9.95411 10.3772 9.95411C10.2798 9.95411 10.1874 9.97335 10.1002 10.0118C10.0156 10.0477 9.94118 10.1003 9.87706 10.1696C9.81294 10.2363 9.76164 10.317 9.72317 10.4119C9.68726 10.5068 9.6693 10.6107 9.6693 10.7236Z" fill="#676767"/>
</svg>
