<svg width="20" height="12" viewBox="0 0 20 12" fill="none" xmlns="http://www.w3.org/2000/svg">
<path d="M9.28133 2.21268C9.28133 1.96163 9.18017 1.72086 9.00011 1.54335C8.82005 1.36583 8.57583 1.2661 8.32119 1.2661H0.960136C0.705492 1.2661 0.461279 1.36583 0.281218 1.54335C0.101156 1.72086 0 1.96163 0 2.21268C0 2.46372 0.101156 2.70449 0.281218 2.882C0.461279 3.05952 0.705492 3.15925 0.960136 3.15925H8.32119C8.57583 3.15925 8.82005 3.05952 9.00011 2.882C9.18017 2.70449 9.28133 2.46372 9.28133 2.21268ZM0.960136 5.0524H8.32119C8.57583 5.0524 8.82005 5.15213 9.00011 5.32965C9.18017 5.50716 9.28133 5.74793 9.28133 5.99897C9.28133 6.25002 9.18017 6.49079 9.00011 6.6683C8.82005 6.84582 8.57583 6.94555 8.32119 6.94555H0.960136C0.705492 6.94555 0.461279 6.84582 0.281218 6.6683C0.101156 6.49079 0 6.25002 0 5.99897C0 5.74793 0.101156 5.50716 0.281218 5.32965C0.461279 5.15213 0.705492 5.0524 0.960136 5.0524ZM0.960136 8.8387H6.40091C6.65556 8.8387 6.89977 8.93843 7.07983 9.11594C7.25989 9.29346 7.36105 9.53423 7.36105 9.78527C7.36105 10.0363 7.25989 10.2771 7.07983 10.4546C6.89977 10.6321 6.65556 10.7318 6.40091 10.7318H0.960136C0.705492 10.7318 0.461279 10.6321 0.281218 10.4546C0.101156 10.2771 0 10.0363 0 9.78527C0 9.53423 0.101156 9.29346 0.281218 9.11594C0.461279 8.93843 0.705492 8.8387 0.960136 8.8387ZM8.19277 10.8114C8.1604 10.9321 8.15256 11.0579 8.16971 11.1816C8.18686 11.3053 8.22865 11.4244 8.29268 11.5321C8.35671 11.6398 8.44172 11.7339 8.5428 11.8091C8.64389 11.8843 8.75906 11.939 8.88168 11.9701C9.00431 12.0012 9.13196 12.0081 9.2573 11.9904C9.38264 11.9727 9.50319 11.9307 9.612 11.8669C9.72081 11.803 9.81574 11.7186 9.89132 11.6185C9.9669 11.5183 10.0216 11.4044 10.0524 11.2833C10.2834 10.4029 10.8045 9.62309 11.5339 9.06637C12.2633 8.50965 13.1596 8.20756 14.082 8.20756C15.0044 8.20756 15.9007 8.50965 16.6301 9.06637C17.3595 9.62309 17.8806 10.4029 18.1116 11.2833C18.1764 11.525 18.3356 11.7315 18.5543 11.8579C18.7731 11.9843 19.0336 12.0203 19.2792 11.958C19.5247 11.8957 19.7353 11.7402 19.865 11.5254C19.9946 11.3106 20.0328 11.0539 19.9713 10.8114C19.7634 10.0141 19.3909 9.26771 18.877 8.61881C18.3632 7.96992 17.7191 7.43251 16.985 7.04021C17.5778 6.47095 17.985 5.74034 18.1544 4.94176C18.3239 4.14318 18.248 3.31292 17.9363 2.55712C17.6247 1.80132 17.0915 1.15431 16.4049 0.698805C15.7183 0.243302 14.9096 0 14.082 0C13.2545 0 12.4457 0.243302 11.7591 0.698805C11.0726 1.15431 10.5394 1.80132 10.2277 2.55712C9.91607 3.31292 9.84012 4.14318 10.0096 4.94176C10.179 5.74034 10.5862 6.47095 11.179 7.04021C10.4449 7.4325 9.80085 7.96989 9.28702 8.61878C8.77319 9.26766 8.40067 10.0141 8.19277 10.8114V10.8114ZM14.082 6.3145C13.6389 6.3145 13.2058 6.18496 12.8374 5.94227C12.4689 5.69958 12.1818 5.35463 12.0122 4.95105C11.8427 4.54747 11.7983 4.10337 11.8847 3.67493C11.9712 3.24649 12.1846 2.85295 12.4979 2.54406C12.8112 2.23517 13.2104 2.02481 13.6449 1.93959C14.0795 1.85437 14.53 1.89811 14.9393 2.06528C15.3487 2.23245 15.6986 2.51554 15.9448 2.87875C16.1909 3.24197 16.3223 3.66899 16.3223 4.10582C16.3217 4.6914 16.0854 5.25281 15.6654 5.66688C15.2454 6.08095 14.676 6.31385 14.082 6.3145Z" fill="#676767"/>
</svg>
